<?xml version="1.0" standalone="no"?>
<!DOCTYPE svg PUBLIC "-//W3C//DTD SVG 20010904//EN"
 "http://www.w3.org/TR/2001/REC-SVG-20010904/DTD/svg10.dtd">
<svg version="1.0" xmlns="http://www.w3.org/2000/svg"
 width="512.000000pt" height="512.000000pt" viewBox="0 0 512.000000 512.000000"
 preserveAspectRatio="xMidYMid meet">
<metadata>
Created by potrace 1.14, written by Peter Selinger 2001-2017
</metadata>
<g transform="translate(0.000000,512.000000) scale(0.100000,-0.100000)"
fill="#000000" stroke="none">
<path d="M180 4977 c-50 -25 -50 -24 -50 -613 0 -359 4 -561 10 -581 11 -29
45 -53 76 -53 8 0 26 11 39 25 l25 24 0 531 0 530 530 0 531 0 24 25 c14 13
25 31 25 39 0 31 -24 65 -53 76 -46 16 -1124 14 -1157 -3z"/>
<path d="M3779 4979 c-26 -10 -49 -45 -49 -75 0 -8 11 -26 25 -39 l24 -25 269
0 c268 0 269 0 290 23 27 29 28 67 3 98 l-19 24 -259 2 c-149 1 -269 -2 -284
-8z"/>
<path d="M4614 4980 c-27 -11 -54 -48 -54 -73 0 -10 11 -29 25 -42 23 -24 30
-25 140 -25 l115 0 0 -115 c0 -110 1 -117 25 -140 30 -31 56 -32 92 -1 l28 24
0 166 c0 221 10 210 -198 213 -83 1 -162 -2 -173 -7z"/>
<path d="M4860 4338 c-19 -21 -20 -34 -20 -290 l0 -269 25 -24 c27 -28 42 -30
80 -13 41 19 47 60 43 331 -3 248 -3 249 -27 268 -31 25 -75 24 -101 -3z"/>
<path d="M2463 4122 c-132 -47 -206 -144 -220 -286 l-6 -62 -364 -143 -364
-143 -45 42 c-69 63 -124 85 -219 85 -67 0 -89 -4 -137 -28 -62 -30 -115 -83
-150 -149 -33 -62 -33 -203 0 -270 30 -60 88 -120 140 -144 l41 -19 1 -437 0
-437 -53 -24 c-117 -53 -178 -142 -185 -268 -6 -102 14 -163 79 -233 67 -74
129 -100 234 -101 93 0 151 23 218 86 22 22 43 39 46 39 3 0 175 -65 381 -143
l375 -143 8 -65 c16 -126 79 -218 186 -268 79 -37 183 -37 261 0 106 51 172
144 187 268 l8 64 375 144 c206 78 378 143 381 143 3 0 25 -19 49 -41 66 -63
120 -84 215 -84 68 0 89 4 137 28 71 35 137 107 162 176 14 40 17 71 14 130
-7 126 -68 215 -185 268 l-53 24 0 437 1 437 39 18 c21 10 56 36 78 58 152
151 107 411 -86 506 -48 24 -69 28 -137 28 -95 0 -150 -22 -219 -85 l-45 -42
-364 143 -365 143 -5 64 c-8 79 -42 157 -92 207 -82 81 -219 114 -322 77z
m195 -161 c63 -44 88 -133 58 -204 -18 -44 -78 -95 -121 -103 -105 -19 -205
64 -205 171 0 64 48 133 110 158 33 14 126 1 158 -22z m-324 -360 c122 -125
322 -125 451 0 l40 39 365 -143 365 -144 0 -57 0 -58 -364 -138 -364 -139 -43
43 c-68 68 -123 91 -224 91 -101 0 -161 -24 -226 -92 l-41 -42 -364 139 -364
138 0 58 0 57 360 143 c198 78 362 142 365 143 3 1 23 -16 44 -38z m-1016
-145 c73 -38 112 -122 91 -198 -21 -79 -112 -139 -191 -124 -160 30 -194 232
-54 317 37 23 115 25 154 5z m2631 -1 c117 -60 127 -229 18 -295 -132 -81
-295 36 -256 183 27 102 148 159 238 112z m-2032 -507 l323 -123 0 -36 c0 -20
9 -66 20 -102 27 -86 87 -154 169 -191 l61 -27 0 -430 0 -429 -27 -10 c-49
-18 -87 -42 -129 -82 l-42 -40 -378 144 -379 145 -7 65 c-3 35 -16 88 -28 117
-27 63 -114 145 -171 162 l-39 12 0 432 0 431 54 17 c53 17 146 79 146 97 0 6
24 1 53 -10 28 -11 197 -75 374 -142z m1812 73 c20 -10 51 -22 69 -26 l32 -7
0 -432 0 -433 -39 -12 c-53 -15 -136 -93 -168 -154 -16 -33 -28 -76 -32 -121
l-6 -70 -379 -144 -378 -144 -42 40 c-42 40 -80 64 -128 82 l-28 10 0 429 0
430 53 24 c64 29 111 68 143 119 27 42 54 135 54 183 l0 30 371 141 370 140
36 -33 c19 -19 52 -42 72 -52z m-1071 -98 c15 -11 37 -37 49 -59 92 -160 -116
-332 -254 -211 -63 56 -80 134 -44 205 36 71 78 93 164 89 38 -2 66 -10 85
-24z m-1349 -966 c134 -89 69 -307 -92 -307 -93 0 -177 78 -177 163 0 33 24
94 48 121 52 58 151 69 221 23z m2666 14 c170 -78 115 -321 -73 -321 -57 0
-104 27 -140 80 -20 29 -23 45 -20 95 4 74 30 114 90 144 52 26 91 26 143 2z
m-1358 -512 c95 -35 139 -149 93 -239 -31 -61 -73 -85 -150 -85 -77 0 -119 24
-150 85 -69 136 66 292 207 239z"/>
<path d="M172 1378 c-12 -6 -27 -27 -33 -47 -6 -24 -9 -226 -7 -593 l3 -557
23 -23 23 -23 557 -3 c366 -2 569 1 593 7 59 18 76 75 34 116 l-24 25 -531 0
-530 0 0 530 0 531 -25 24 c-26 27 -47 30 -83 13z"/>
<path d="M4865 1365 l-25 -24 0 -531 0 -530 -530 0 -531 0 -24 -25 c-42 -41
-25 -98 34 -116 24 -6 227 -9 593 -7 l557 3 23 23 23 23 3 557 c2 366 -1 569
-7 593 -18 59 -75 76 -116 34z"/>
</g>
</svg>
